<svg width="19" height="19" viewBox="0 0 19 19" fill="none" xmlns="http://www.w3.org/2000/svg">
<rect x="0.9375" y="0.916504" width="18" height="18" rx="3" fill="black"/>
<path fill-rule="evenodd" clip-rule="evenodd" d="M15.476 12.7189C15.476 14.2299 14.251 15.4549 12.7401 15.4549H7.13502C5.62402 15.4549 4.39905 14.2299 4.39905 12.7189V7.11391C4.39905 5.6029 5.62402 4.37793 7.13502 4.37793H12.7401C14.251 4.37793 15.476 5.6029 15.476 7.11391V12.7189ZM9.93752 6.32972C7.95979 6.32972 6.35084 7.93867 6.35084 9.91639C6.35084 11.8938 7.95979 13.5028 9.93752 13.5028C11.9149 13.5028 13.524 11.8938 13.524 9.91639C13.524 7.93867 11.9149 6.32972 9.93752 6.32972ZM13.5308 7.21613C14.0055 7.21613 14.3902 6.8315 14.3902 6.35692C14.3902 5.88215 14.0055 5.49746 13.5308 5.49746C13.0562 5.49746 12.6715 5.88215 12.6715 6.35692C12.6715 6.8315 13.0562 7.21613 13.5308 7.21613Z" fill="white"/>
<path fill-rule="evenodd" clip-rule="evenodd" d="M9.93763 11.9934C8.79051 11.9934 7.8606 11.0638 7.8606 9.91663C7.8606 8.76951 8.79051 7.8396 9.93763 7.8396C11.0845 7.8396 12.0144 8.76951 12.0144 9.91663C12.0144 11.0635 11.0845 11.9934 9.93763 11.9934Z" fill="white"/>
</svg>
