<svg width="19" height="19" viewBox="0 0 19 19" fill="none" xmlns="http://www.w3.org/2000/svg">
<rect x="0.9375" y="0.537598" width="18" height="18" rx="3" fill="#F61067"/>
<path fill-rule="evenodd" clip-rule="evenodd" d="M15.476 12.34C15.476 13.851 14.251 15.0759 12.7401 15.0759H7.13502C5.62402 15.0759 4.39905 13.851 4.39905 12.34V6.735C4.39905 5.224 5.62402 3.99902 7.13502 3.99902H12.7401C14.251 3.99902 15.476 5.224 15.476 6.735V12.34ZM9.93752 5.95082C7.95979 5.95082 6.35084 7.55976 6.35084 9.53749C6.35084 11.5149 7.95979 13.1239 9.93752 13.1239C11.9149 13.1239 13.524 11.5149 13.524 9.53749C13.524 7.55976 11.9149 5.95082 9.93752 5.95082ZM13.5308 6.83722C14.0055 6.83722 14.3902 6.4526 14.3902 5.97801C14.3902 5.50324 14.0055 5.11856 13.5308 5.11856C13.0562 5.11856 12.6715 5.50324 12.6715 5.97801C12.6715 6.4526 13.0562 6.83722 13.5308 6.83722Z" fill="white"/>
<path fill-rule="evenodd" clip-rule="evenodd" d="M9.93763 11.6145C8.79051 11.6145 7.8606 10.6848 7.8606 9.53773C7.8606 8.39061 8.79051 7.46069 9.93763 7.46069C11.0845 7.46069 12.0144 8.39061 12.0144 9.53773C12.0144 10.6846 11.0845 11.6145 9.93763 11.6145Z" fill="white"/>
</svg>
