<svg width="31" height="31" viewBox="0 0 31 31" fill="none" xmlns="http://www.w3.org/2000/svg">
<path fill-rule="evenodd" clip-rule="evenodd" d="M22.4762 20.0148L20.1597 17.6992C19.6983 17.2399 18.9342 17.2538 18.4567 17.7312L17.2897 18.8974C17.2159 18.8568 17.1396 18.8144 17.0594 18.7694C16.3224 18.3612 15.3137 17.8018 14.2522 16.7401C13.1876 15.6762 12.6274 14.6665 12.2178 13.9294C12.1746 13.8513 12.1332 13.776 12.0923 13.7045L12.8755 12.9228L13.2606 12.5374C13.7388 12.0593 13.752 11.2958 13.2917 10.8352L10.9752 8.51933C10.5149 8.05932 9.75041 8.07328 9.27219 8.55137L8.61932 9.20766L8.63716 9.22536C8.41824 9.50456 8.23531 9.82656 8.09918 10.1738C7.97369 10.5043 7.89556 10.8198 7.85983 11.1358C7.55395 13.6704 8.71275 15.9867 11.8576 19.13C16.2047 23.4746 19.7079 23.1464 19.859 23.1303C20.1882 23.091 20.5036 23.0124 20.8242 22.888C21.1686 22.7535 21.4905 22.5709 21.7697 22.3526L21.784 22.3653L22.4454 21.7179C22.9226 21.2399 22.9363 20.4762 22.4762 20.0148Z" fill="black"/>
<mask id="mask0_1_221" style="mask-type:alpha" maskUnits="userSpaceOnUse" x="7" y="8" width="16" height="16">
<path fill-rule="evenodd" clip-rule="evenodd" d="M22.4762 20.0148L20.1597 17.6992C19.6983 17.2399 18.9342 17.2538 18.4567 17.7312L17.2897 18.8974C17.2159 18.8568 17.1396 18.8144 17.0594 18.7694C16.3224 18.3612 15.3137 17.8018 14.2522 16.7401C13.1876 15.6762 12.6274 14.6665 12.2178 13.9294C12.1746 13.8513 12.1332 13.776 12.0923 13.7045L12.8755 12.9228L13.2606 12.5374C13.7388 12.0593 13.752 11.2958 13.2917 10.8352L10.9752 8.51933C10.5149 8.05932 9.75041 8.07328 9.27219 8.55137L8.61932 9.20766L8.63716 9.22536C8.41824 9.50456 8.23531 9.82656 8.09918 10.1738C7.97369 10.5043 7.89556 10.8198 7.85983 11.1358C7.55395 13.6704 8.71275 15.9867 11.8576 19.13C16.2047 23.4746 19.7079 23.1464 19.859 23.1303C20.1882 23.091 20.5036 23.0124 20.8242 22.888C21.1686 22.7535 21.4905 22.5709 21.7697 22.3526L21.784 22.3653L22.4454 21.7179C22.9226 21.2399 22.9363 20.4762 22.4762 20.0148Z" fill="white"/>
</mask>
<g mask="url(#mask0_1_221)">
<rect width="30" height="29.9169" transform="translate(0.3125 0.704102)" fill="#F61067"/>
<rect x="0.3125" y="0.704102" width="30.6" height="30.5153" fill="#F61067"/>
</g>
</svg>
