<?xml version="1.0" encoding="UTF-8"?>
<svg xmlns="http://www.w3.org/2000/svg" xmlns:xlink="http://www.w3.org/1999/xlink" viewBox="0 0 48 48" width="48px" height="48px">
<g id="surface9138188">
<path style=" stroke:none;fill-rule:nonzero;fill:rgb(7.450981%,1.568628%,18.82353%);fill-opacity:1;" d="M 43 15 L 5 15 C 3.898438 15 3 14.101562 3 13 L 3 11 C 3 9.898438 3.898438 9 5 9 L 43 9 C 44.101562 9 45 9.898438 45 11 L 45 13 C 45 14.101562 44.101562 15 43 15 Z M 43 15 "/>
<path style=" stroke:none;fill-rule:nonzero;fill:rgb(7.450981%,1.568628%,18.82353%);fill-opacity:1;" d="M 43 27 L 5 27 C 3.898438 27 3 26.101562 3 25 L 3 23 C 3 21.898438 3.898438 21 5 21 L 43 21 C 44.101562 21 45 21.898438 45 23 L 45 25 C 45 26.101562 44.101562 27 43 27 Z M 43 27 "/>
<path style=" stroke:none;fill-rule:nonzero;fill:rgb(7.450981%,1.568628%,18.82353%);fill-opacity:1;" d="M 43 39 L 5 39 C 3.898438 39 3 38.101562 3 37 L 3 35 C 3 33.898438 3.898438 33 5 33 L 43 33 C 44.101562 33 45 33.898438 45 35 L 45 37 C 45 38.101562 44.101562 39 43 39 Z M 43 39 "/>
</g>
</svg>
