<svg width="31" height="30" viewBox="0 0 31 30" fill="none" xmlns="http://www.w3.org/2000/svg">
<path fill-rule="evenodd" clip-rule="evenodd" d="M7.61172 7.47925H23.0133C23.4667 7.47925 23.8591 7.63532 24.1906 7.94729C24.5216 8.25965 24.6875 8.63468 24.6875 9.07297C24.6875 9.59756 24.5164 10.0989 24.1752 10.5769C23.8333 11.0548 23.4079 11.4634 22.8987 11.8019C21.2058 12.9205 19.9282 13.7649 19.0608 14.3387C18.5841 14.6538 18.2295 14.8884 18.002 15.0392C17.9682 15.0618 17.9155 15.0974 17.8455 15.1453C17.7701 15.1966 17.6747 15.2621 17.5572 15.343C17.3305 15.4991 17.1422 15.6252 16.9922 15.7216C16.8419 15.8178 16.6607 15.9257 16.448 16.0453C16.2351 16.1649 16.0346 16.2545 15.8463 16.3142C15.658 16.3739 15.4836 16.4038 15.3232 16.4038H15.3128H15.3024C15.1419 16.4038 14.9676 16.3739 14.7792 16.3142C14.5909 16.2545 14.3903 16.1647 14.1775 16.0453C13.9646 15.9257 13.7832 15.818 13.6334 15.7216C13.4834 15.6252 13.2951 15.4991 13.0684 15.343C12.9507 15.2621 12.8553 15.1967 12.7799 15.1451L12.7726 15.1402C12.7062 15.095 12.656 15.0608 12.6236 15.0392C12.3315 14.8436 11.9778 14.608 11.5676 14.3359C11.0863 14.0164 10.5263 13.6461 9.88233 13.2213C8.68941 12.4346 7.9744 11.9614 7.7373 11.8019C7.3048 11.5231 6.89667 11.1397 6.51312 10.6516C6.12958 10.1634 5.93772 9.71017 5.93772 9.29191C5.93772 8.77409 6.08229 8.34232 6.37192 7.99706C6.66131 7.65197 7.0744 7.47925 7.61172 7.47925ZM5.9375 12.0012C6.24439 12.3267 6.59689 12.6156 6.99439 12.8679C8.47606 13.8264 9.68294 14.6156 10.6196 15.2381L5.9375 19.6952V12.0012ZM24.1116 21.1094C23.8012 21.371 23.436 21.5034 23.0145 21.5034H7.61293C7.19149 21.5034 6.82605 21.371 6.51562 21.1094L11.8288 16.0509C11.9617 16.1417 12.0846 16.2266 12.1955 16.304C12.5932 16.5828 12.9157 16.8004 13.1634 16.9563C13.4109 17.1125 13.7405 17.2718 14.1522 17.4344C14.5638 17.5973 14.9474 17.6784 15.3032 17.6784H15.3136H15.3241C15.6799 17.6784 16.0634 17.5972 16.4751 17.4344C16.8865 17.2718 17.2161 17.1125 17.4638 16.9563C17.7116 16.8004 18.0342 16.5828 18.4318 16.304C18.5485 16.2236 18.672 16.1391 18.7995 16.0523L24.1116 21.1094ZM23.6417 12.8679C22.2165 13.7862 21.0052 14.5767 20.0077 15.2399L24.688 19.6954V12.0012C24.3879 12.3202 24.0392 12.6089 23.6417 12.8679Z" fill="black"/>
<mask id="mask0_1_226" style="mask-type:alpha" maskUnits="userSpaceOnUse" x="5" y="7" width="20" height="15">
<path fill-rule="evenodd" clip-rule="evenodd" d="M7.61172 7.47925H23.0133C23.4667 7.47925 23.8591 7.63532 24.1906 7.94729C24.5216 8.25965 24.6875 8.63468 24.6875 9.07297C24.6875 9.59756 24.5164 10.0989 24.1752 10.5769C23.8333 11.0548 23.4079 11.4634 22.8987 11.8019C21.2058 12.9205 19.9282 13.7649 19.0608 14.3387C18.5841 14.6538 18.2295 14.8884 18.002 15.0392C17.9682 15.0618 17.9155 15.0974 17.8455 15.1453C17.7701 15.1966 17.6747 15.2621 17.5572 15.343C17.3305 15.4991 17.1422 15.6252 16.9922 15.7216C16.8419 15.8178 16.6607 15.9257 16.448 16.0453C16.2351 16.1649 16.0346 16.2545 15.8463 16.3142C15.658 16.3739 15.4836 16.4038 15.3232 16.4038H15.3128H15.3024C15.1419 16.4038 14.9676 16.3739 14.7792 16.3142C14.5909 16.2545 14.3903 16.1647 14.1775 16.0453C13.9646 15.9257 13.7832 15.818 13.6334 15.7216C13.4834 15.6252 13.2951 15.4991 13.0684 15.343C12.9507 15.2621 12.8553 15.1967 12.7799 15.1451L12.7726 15.1402C12.7062 15.095 12.656 15.0608 12.6236 15.0392C12.3315 14.8436 11.9778 14.608 11.5676 14.3359C11.0863 14.0164 10.5263 13.6461 9.88233 13.2213C8.68941 12.4346 7.9744 11.9614 7.7373 11.8019C7.3048 11.5231 6.89667 11.1397 6.51312 10.6516C6.12958 10.1634 5.93772 9.71017 5.93772 9.29191C5.93772 8.77409 6.08229 8.34232 6.37192 7.99706C6.66131 7.65197 7.0744 7.47925 7.61172 7.47925ZM5.9375 12.0012C6.24439 12.3267 6.59689 12.6156 6.99439 12.8679C8.47606 13.8264 9.68294 14.6156 10.6196 15.2381L5.9375 19.6952V12.0012ZM24.1116 21.1094C23.8012 21.371 23.436 21.5034 23.0145 21.5034H7.61293C7.19149 21.5034 6.82605 21.371 6.51562 21.1094L11.8288 16.0509C11.9617 16.1417 12.0846 16.2266 12.1955 16.304C12.5932 16.5828 12.9157 16.8004 13.1634 16.9563C13.4109 17.1125 13.7405 17.2718 14.1522 17.4344C14.5638 17.5973 14.9474 17.6784 15.3032 17.6784H15.3136H15.3241C15.6799 17.6784 16.0634 17.5972 16.4751 17.4344C16.8865 17.2718 17.2161 17.1125 17.4638 16.9563C17.7116 16.8004 18.0342 16.5828 18.4318 16.304C18.5485 16.2236 18.672 16.1391 18.7995 16.0523L24.1116 21.1094ZM23.6417 12.8679C22.2165 13.7862 21.0052 14.5767 20.0077 15.2399L24.688 19.6954V12.0012C24.3879 12.3202 24.0392 12.6089 23.6417 12.8679Z" fill="white"/>
</mask>
<g mask="url(#mask0_1_226)">
<rect width="30" height="29.9168" transform="translate(0.3125)" fill="black"/>
<rect x="0.3125" width="30.6" height="30.5152" fill="#150433"/>
</g>
</svg>
