<svg width="31" height="31" viewBox="0 0 31 31" fill="none" xmlns="http://www.w3.org/2000/svg">
<path fill-rule="evenodd" clip-rule="evenodd" d="M7.61172 8.10034H23.0133C23.4667 8.10034 23.8591 8.25641 24.1906 8.56838C24.5216 8.88074 24.6875 9.25578 24.6875 9.69407C24.6875 10.2187 24.5164 10.72 24.1752 11.198C23.8333 11.6759 23.4079 12.0845 22.8987 12.423C21.2058 13.5416 19.9282 14.386 19.0608 14.9598C18.5841 15.2749 18.2295 15.5095 18.002 15.6603C17.9682 15.6828 17.9155 15.7185 17.8455 15.7664C17.7701 15.8177 17.6747 15.8832 17.5572 15.9641C17.3305 16.1202 17.1422 16.2463 16.9922 16.3427C16.8419 16.4389 16.6607 16.5468 16.448 16.6664C16.2351 16.786 16.0346 16.8756 15.8463 16.9353C15.658 16.995 15.4836 17.0249 15.3232 17.0249H15.3128H15.3024C15.1419 17.0249 14.9676 16.995 14.7792 16.9353C14.5909 16.8756 14.3903 16.7858 14.1775 16.6664C13.9646 16.5468 13.7832 16.4391 13.6334 16.3427C13.4834 16.2463 13.2951 16.1202 13.0684 15.9641C12.9507 15.8832 12.8553 15.8178 12.7799 15.7662L12.7726 15.7613C12.7062 15.7161 12.656 15.6819 12.6236 15.6603C12.3315 15.4647 11.9778 15.2291 11.5676 14.957C11.0863 14.6375 10.5263 14.2672 9.88233 13.8424C8.68941 13.0557 7.9744 12.5825 7.7373 12.423C7.3048 12.1442 6.89667 11.7608 6.51312 11.2727C6.12958 10.7845 5.93772 10.3313 5.93772 9.913C5.93772 9.39519 6.08229 8.96341 6.37192 8.61816C6.66131 8.27307 7.0744 8.10034 7.61172 8.10034ZM5.9375 12.6223C6.24439 12.9478 6.59689 13.2367 6.99439 13.489C8.47606 14.4475 9.68294 15.2367 10.6196 15.8592L5.9375 20.3163V12.6223ZM24.1116 21.7305C23.8012 21.992 23.436 22.1245 23.0145 22.1245H7.61293C7.19149 22.1245 6.82605 21.992 6.51562 21.7305L11.8288 16.672C11.9617 16.7628 12.0846 16.8477 12.1955 16.9251C12.5932 17.2039 12.9157 17.4214 13.1634 17.5774C13.4109 17.7336 13.7405 17.8929 14.1522 18.0555C14.5638 18.2183 14.9474 18.2995 15.3032 18.2995H15.3136H15.3241C15.6799 18.2995 16.0634 18.2183 16.4751 18.0555C16.8865 17.8929 17.2161 17.7336 17.4638 17.5774C17.7116 17.4214 18.0342 17.2039 18.4318 16.9251C18.5485 16.8447 18.672 16.7602 18.7995 16.6734L24.1116 21.7305ZM23.6417 13.489C22.2165 14.4073 21.0052 15.1978 20.0077 15.861L24.688 20.3165V12.6223C24.3879 12.9412 24.0392 13.23 23.6417 13.489Z" fill="black"/>
<mask id="mask0_1_226" style="mask-type:alpha" maskUnits="userSpaceOnUse" x="5" y="8" width="20" height="15">
<path fill-rule="evenodd" clip-rule="evenodd" d="M7.61172 8.10034H23.0133C23.4667 8.10034 23.8591 8.25641 24.1906 8.56838C24.5216 8.88074 24.6875 9.25578 24.6875 9.69407C24.6875 10.2187 24.5164 10.72 24.1752 11.198C23.8333 11.6759 23.4079 12.0845 22.8987 12.423C21.2058 13.5416 19.9282 14.386 19.0608 14.9598C18.5841 15.2749 18.2295 15.5095 18.002 15.6603C17.9682 15.6828 17.9155 15.7185 17.8455 15.7664C17.7701 15.8177 17.6747 15.8832 17.5572 15.9641C17.3305 16.1202 17.1422 16.2463 16.9922 16.3427C16.8419 16.4389 16.6607 16.5468 16.448 16.6664C16.2351 16.786 16.0346 16.8756 15.8463 16.9353C15.658 16.995 15.4836 17.0249 15.3232 17.0249H15.3128H15.3024C15.1419 17.0249 14.9676 16.995 14.7792 16.9353C14.5909 16.8756 14.3903 16.7858 14.1775 16.6664C13.9646 16.5468 13.7832 16.4391 13.6334 16.3427C13.4834 16.2463 13.2951 16.1202 13.0684 15.9641C12.9507 15.8832 12.8553 15.8178 12.7799 15.7662L12.7726 15.7613C12.7062 15.7161 12.656 15.6819 12.6236 15.6603C12.3315 15.4647 11.9778 15.2291 11.5676 14.957C11.0863 14.6375 10.5263 14.2672 9.88233 13.8424C8.68941 13.0557 7.9744 12.5825 7.7373 12.423C7.3048 12.1442 6.89667 11.7608 6.51312 11.2727C6.12958 10.7845 5.93772 10.3313 5.93772 9.913C5.93772 9.39519 6.08229 8.96341 6.37192 8.61816C6.66131 8.27307 7.0744 8.10034 7.61172 8.10034ZM5.9375 12.6223C6.24439 12.9478 6.59689 13.2367 6.99439 13.489C8.47606 14.4475 9.68294 15.2367 10.6196 15.8592L5.9375 20.3163V12.6223ZM24.1116 21.7305C23.8012 21.992 23.436 22.1245 23.0145 22.1245H7.61293C7.19149 22.1245 6.82605 21.992 6.51562 21.7305L11.8288 16.672C11.9617 16.7628 12.0846 16.8477 12.1955 16.9251C12.5932 17.2039 12.9157 17.4214 13.1634 17.5774C13.4109 17.7336 13.7405 17.8929 14.1522 18.0555C14.5638 18.2183 14.9474 18.2995 15.3032 18.2995H15.3136H15.3241C15.6799 18.2995 16.0634 18.2183 16.4751 18.0555C16.8865 17.8929 17.2161 17.7336 17.4638 17.5774C17.7116 17.4214 18.0342 17.2039 18.4318 16.9251C18.5485 16.8447 18.672 16.7602 18.7995 16.6734L24.1116 21.7305ZM23.6417 13.489C22.2165 14.4073 21.0052 15.1978 20.0077 15.861L24.688 20.3165V12.6223C24.3879 12.9412 24.0392 13.23 23.6417 13.489Z" fill="white"/>
</mask>
<g mask="url(#mask0_1_226)">
<rect width="30" height="29.9168" transform="translate(0.3125 0.621094)" fill="black"/>
<rect x="0.3125" y="0.621094" width="30.6" height="30.5152" fill="#F61067"/>
</g>
</svg>
