<svg width="30" height="30" viewBox="0 0 30 30" fill="none" xmlns="http://www.w3.org/2000/svg">
<path fill-rule="evenodd" clip-rule="evenodd" d="M22.1637 19.3937L19.8472 17.0781C19.3858 16.6188 18.6217 16.6327 18.1442 17.1101L16.9772 18.2763C16.9034 18.2357 16.8271 18.1933 16.7469 18.1483C16.0099 17.7401 15.0012 17.1807 13.9397 16.119C12.8751 15.0551 12.3149 14.0454 11.9053 13.3083C11.8621 13.2302 11.8207 13.1549 11.7798 13.0834L12.563 12.3017L12.9481 11.9163C13.4263 11.4382 13.4395 10.6747 12.9792 10.2141L10.6627 7.89824C10.2024 7.43823 9.43791 7.45218 8.95969 7.93028L8.30682 8.58657L8.32466 8.60427C8.10574 8.88346 7.92281 9.20547 7.78668 9.55272C7.66119 9.88325 7.58306 10.1987 7.54733 10.5147C7.24145 13.0493 8.40025 15.3656 11.5451 18.5089C15.8922 22.8535 19.3954 22.5253 19.5465 22.5092C19.8757 22.4699 20.1911 22.3913 20.5117 22.2669C20.8561 22.1324 21.178 21.9498 21.4572 21.7315L21.4715 21.7442L22.1329 21.0968C22.6101 20.6188 22.6238 19.8551 22.1637 19.3937Z" fill="black"/>
<mask id="mask0_34_91" style="mask-type:alpha" maskUnits="userSpaceOnUse" x="7" y="7" width="16" height="16">
<path fill-rule="evenodd" clip-rule="evenodd" d="M22.1637 19.3937L19.8472 17.0781C19.3858 16.6188 18.6217 16.6327 18.1442 17.1101L16.9772 18.2763C16.9034 18.2357 16.8271 18.1933 16.7469 18.1483C16.0099 17.7401 15.0012 17.1807 13.9397 16.119C12.8751 15.0551 12.3149 14.0454 11.9053 13.3083C11.8621 13.2302 11.8207 13.1549 11.7798 13.0834L12.563 12.3017L12.9481 11.9163C13.4263 11.4382 13.4395 10.6747 12.9792 10.2141L10.6627 7.89824C10.2024 7.43823 9.43791 7.45218 8.95969 7.93028L8.30682 8.58657L8.32466 8.60427C8.10574 8.88346 7.92281 9.20547 7.78668 9.55272C7.66119 9.88325 7.58306 10.1987 7.54733 10.5147C7.24145 13.0493 8.40025 15.3656 11.5451 18.5089C15.8922 22.8535 19.3954 22.5253 19.5465 22.5092C19.8757 22.4699 20.1911 22.3913 20.5117 22.2669C20.8561 22.1324 21.178 21.9498 21.4572 21.7315L21.4715 21.7442L22.1329 21.0968C22.6101 20.6188 22.6238 19.8551 22.1637 19.3937Z" fill="white"/>
</mask>
<g mask="url(#mask0_34_91)">
<rect width="30" height="29.9169" transform="translate(0 0.0830078)" fill="#150433"/>
<rect y="0.0830078" width="30.6" height="30.5153" fill="#150433"/>
</g>
</svg>
