<svg width="27" height="37" viewBox="0 0 27 37" fill="none" xmlns="http://www.w3.org/2000/svg">
<path fill-rule="evenodd" clip-rule="evenodd" d="M0.3125 13.6163C0.3125 6.27898 6.28191 0.30957 13.6185 0.30957C20.9554 0.30957 26.9248 6.27898 26.9255 13.6163C26.9255 15.5301 26.5342 17.3574 25.7619 19.0479C22.4339 26.3286 16.0554 34.0143 14.18 36.196C14.0394 36.3591 13.8345 36.453 13.6188 36.453C13.4032 36.453 13.1983 36.3591 13.0577 36.196C11.1816 34.0139 4.80306 26.3278 1.4762 19.0479C0.704222 17.3574 0.3125 15.5301 0.3125 13.6163ZM6.70612 13.6159C6.70612 17.427 9.80697 20.5278 13.618 20.5278C17.4295 20.5278 20.5303 17.427 20.5299 13.6159C20.5299 9.80447 17.4291 6.70362 13.618 6.70362C9.80697 6.70362 6.70612 9.80447 6.70612 13.6159Z" fill="#150433"/>
</svg>
