<svg width="28" height="37" viewBox="0 0 28 37" fill="none" xmlns="http://www.w3.org/2000/svg">
<path fill-rule="evenodd" clip-rule="evenodd" d="M0.5 13.774C0.5 6.4367 6.46941 0.467285 13.806 0.467285C21.1429 0.467285 27.1123 6.4367 27.113 13.774C27.113 15.6878 26.7217 17.5151 25.9494 19.2056C22.6214 26.4863 16.2429 34.172 14.3675 36.3537C14.2269 36.5168 14.022 36.6108 13.8063 36.6108C13.5907 36.6108 13.3858 36.5168 13.2452 36.3537C11.3691 34.1716 4.99056 26.4855 1.6637 19.2056C0.891722 17.5151 0.5 15.6878 0.5 13.774ZM6.89362 13.7736C6.89362 17.5847 9.99447 20.6855 13.8055 20.6855C17.617 20.6855 20.7178 17.5847 20.7174 13.7736C20.7174 9.96219 17.6166 6.86133 13.8055 6.86133C9.99447 6.86133 6.89362 9.96219 6.89362 13.7736Z" fill="#F61067"/>
</svg>
