<svg width="15" height="19" viewBox="0 0 15 19" fill="none" xmlns="http://www.w3.org/2000/svg">
<path fill-rule="evenodd" clip-rule="evenodd" d="M0.4375 7.06735C0.4375 3.2722 3.52513 0.18457 7.3199 0.18457C11.1149 0.18457 14.2025 3.2722 14.2029 7.06735C14.2029 8.05728 14.0004 9.00243 13.601 9.87679C11.8796 13.6427 8.58036 17.6181 7.61033 18.7465C7.53763 18.8309 7.43163 18.8795 7.32009 18.8795C7.20855 18.8795 7.10255 18.8309 7.02985 18.7465C6.05944 17.6179 2.7602 13.6423 1.03941 9.87679C0.640115 9.00243 0.4375 8.05728 0.4375 7.06735ZM3.74452 7.06716C3.74452 9.0384 5.34841 10.6423 7.31965 10.6423C9.29108 10.6423 10.895 9.0384 10.8948 7.06716C10.8948 5.09573 9.29088 3.49184 7.31965 3.49184C5.34841 3.49184 3.74452 5.09573 3.74452 7.06716Z" fill="white"/>
</svg>
