<svg width="56" height="48" viewBox="0 0 56 48" fill="none" xmlns="http://www.w3.org/2000/svg">
<path d="M38.6202 24.3536C38.8154 24.1583 38.8154 23.8417 38.6202 23.6464L35.4382 20.4645C35.2429 20.2692 34.9263 20.2692 34.7311 20.4645C34.5358 20.6597 34.5358 20.9763 34.7311 21.1716L37.5595 24L34.7311 26.8284C34.5358 27.0237 34.5358 27.3403 34.7311 27.5355C34.9263 27.7308 35.2429 27.7308 35.4382 27.5355L38.6202 24.3536ZM0.766602 24.5H38.2666V23.5H0.766602V24.5Z" fill="#FCFCFC"/>
<path fill-rule="evenodd" clip-rule="evenodd" d="M54.2665 24C54.2665 36.7025 43.9691 47 31.2665 47C19.3659 47 9.57629 37.9617 8.38767 26.375H7.38257C8.57512 38.515 18.8132 48 31.2665 48C44.5214 48 55.2665 37.2548 55.2665 24C55.2665 10.7452 44.5214 0 31.2665 0C18.8132 0 8.57512 9.48504 7.38257 21.625H8.38767C9.57629 10.0383 19.3659 1 31.2665 1C43.9691 1 54.2665 11.2975 54.2665 24Z" fill="white"/>
</svg>
