<svg width="63" height="26" viewBox="0 0 63 26" fill="none" xmlns="http://www.w3.org/2000/svg">
<path fill-rule="evenodd" clip-rule="evenodd" d="M23.4049 19.8898C23.4049 20.5731 23.1468 21.2263 22.677 21.7286L22.6021 21.6604L22.6834 21.7352C20.2133 24.3453 16.7212 25.8419 13.1019 25.8419C5.87764 25.8419 0 20.0458 0 12.9213C0 5.79639 5.87764 0 13.1019 0C16.5476 0 19.8018 1.30863 22.2649 3.68479C22.6996 4.11105 23.2071 4.89898 23.2071 5.71936C23.2071 7.21017 21.9771 8.42292 20.4646 8.42292C19.8259 8.42292 19.2101 8.2016 18.7196 7.80243L18.718 7.80367C18.7139 7.79945 18.7105 7.79605 18.7062 7.79224C18.6943 7.78266 18.6825 7.7736 18.6703 7.76423L18.6732 7.76C17.2293 6.32368 15.108 5.43265 13.1195 5.43265C8.94298 5.43265 5.544 8.78367 5.544 12.9038C5.544 17.0233 8.94298 20.3749 13.1195 20.3749C15.5018 20.3749 17.7762 18.946 19.0009 17.7219L19.0506 17.7713L19.0037 17.7183C19.4617 17.3281 19.9241 17.1766 20.6533 17.1766C22.171 17.1766 23.4049 18.3935 23.4049 19.8898ZM26.4387 12.9665C26.4387 20.0941 32.3174 25.8928 39.5448 25.8928C46.7711 25.8928 52.6515 20.0941 52.6515 12.9665C52.6515 5.83959 46.7711 0.0410331 39.5448 0.0410331C32.3174 0.0410331 26.4387 5.83959 26.4387 12.9665ZM31.9111 12.9483C31.9111 8.8075 35.3267 5.43928 39.5249 5.43928C43.724 5.43928 47.1397 8.8075 47.1397 12.9483C47.1397 17.0888 43.724 20.4573 39.5249 20.4573C35.3267 20.4573 31.9111 17.0888 31.9111 12.9483ZM59.5683 25.9999H59.079C57.702 25.9999 56.5927 24.776 56.5927 23.7629L56.5753 2.29583C56.5753 1.28874 57.7306 0.0584891 59.079 0.0584891H59.5683C60.9448 0.0584891 62.0531 1.28236 62.0531 2.29583L62.0715 23.7629C62.0715 24.7694 60.9162 25.9999 59.5683 25.9999Z" fill="white"/>
<mask id="mask0_51_3" style="mask-type:alpha" maskUnits="userSpaceOnUse" x="0" y="0" width="63" height="26">
<path fill-rule="evenodd" clip-rule="evenodd" d="M23.4049 19.8898C23.4049 20.5731 23.1468 21.2263 22.677 21.7286L22.6021 21.6604L22.6834 21.7352C20.2133 24.3453 16.7212 25.8419 13.1019 25.8419C5.87764 25.8419 0 20.0458 0 12.9213C0 5.79639 5.87764 0 13.1019 0C16.5476 0 19.8018 1.30863 22.2649 3.68479C22.6996 4.11105 23.2071 4.89898 23.2071 5.71936C23.2071 7.21017 21.9771 8.42292 20.4646 8.42292C19.8259 8.42292 19.2101 8.2016 18.7196 7.80243L18.718 7.80367C18.7139 7.79945 18.7105 7.79605 18.7062 7.79224C18.6943 7.78266 18.6825 7.7736 18.6703 7.76423L18.6732 7.76C17.2293 6.32368 15.108 5.43265 13.1195 5.43265C8.94298 5.43265 5.544 8.78367 5.544 12.9038C5.544 17.0233 8.94298 20.3749 13.1195 20.3749C15.5018 20.3749 17.7762 18.946 19.0009 17.7219L19.0506 17.7713L19.0037 17.7183C19.4617 17.3281 19.9241 17.1766 20.6533 17.1766C22.171 17.1766 23.4049 18.3935 23.4049 19.8898ZM26.4387 12.9665C26.4387 20.0941 32.3174 25.8928 39.5448 25.8928C46.7711 25.8928 52.6515 20.0941 52.6515 12.9665C52.6515 5.83959 46.7711 0.0410331 39.5448 0.0410331C32.3174 0.0410331 26.4387 5.83959 26.4387 12.9665ZM31.9111 12.9483C31.9111 8.8075 35.3267 5.43928 39.5249 5.43928C43.724 5.43928 47.1397 8.8075 47.1397 12.9483C47.1397 17.0888 43.724 20.4573 39.5249 20.4573C35.3267 20.4573 31.9111 17.0888 31.9111 12.9483ZM59.5683 25.9999H59.079C57.702 25.9999 56.5927 24.776 56.5927 23.7629L56.5753 2.29583C56.5753 1.28874 57.7306 0.0584891 59.079 0.0584891H59.5683C60.9448 0.0584891 62.0531 1.28236 62.0531 2.29583L62.0715 23.7629C62.0715 24.7694 60.9162 25.9999 59.5683 25.9999Z" fill="white"/>
</mask>
<g mask="url(#mask0_51_3)">
<rect x="-7.4812" y="69.21" width="179.207" height="62.7638" transform="rotate(-54.8305 -7.4812 69.21)" fill="white"/>
</g>
</svg>
