<svg width="63" height="26" viewBox="0 0 63 26" fill="none" xmlns="http://www.w3.org/2000/svg">
<path fill-rule="evenodd" clip-rule="evenodd" d="M23.4048 19.8897C23.4048 20.573 23.1467 21.2262 22.677 21.7286L22.602 21.6603L22.6833 21.7351C20.2132 24.3452 16.7211 25.8417 13.1018 25.8417C5.87762 25.8417 0 20.0457 0 12.9212C0 5.79637 5.87762 0 13.1018 0C16.5476 0 19.8017 1.30862 22.2648 3.68478C22.6995 4.11103 23.207 4.89896 23.207 5.71934C23.207 7.21014 21.977 8.42288 20.4645 8.42288C19.8258 8.42288 19.21 8.20157 18.7195 7.8024L18.7179 7.80364C18.7138 7.79941 18.7104 7.79601 18.7062 7.7922C18.6942 7.78263 18.6824 7.77356 18.6702 7.76419L18.6732 7.75997C17.2293 6.32365 15.1079 5.43263 13.1195 5.43263C8.94294 5.43263 5.54398 8.78363 5.54398 12.9037C5.54398 17.0232 8.94294 20.3748 13.1195 20.3748C15.5017 20.3748 17.7761 18.9459 19.0008 17.7218L19.0505 17.7712L19.0037 17.7182C19.4616 17.328 19.924 17.1765 20.6532 17.1765C22.1709 17.1765 23.4048 18.3934 23.4048 19.8897ZM26.4387 12.9668C26.4387 20.0944 32.3174 25.893 39.5448 25.893C46.7711 25.893 52.6514 20.0944 52.6514 12.9668C52.6514 5.83989 46.7711 0.0413544 39.5448 0.0413544C32.3174 0.0413544 26.4387 5.83989 26.4387 12.9668ZM31.911 12.9482C31.911 8.8074 35.3266 5.4392 39.5248 5.4392C43.7239 5.4392 47.1396 8.8074 47.1396 12.9482C47.1396 17.0887 43.7239 20.4572 39.5248 20.4572C35.3266 20.4572 31.911 17.0887 31.911 12.9482ZM59.5679 26.0001H59.0787C57.7016 26.0001 56.5924 24.7762 56.5924 23.7631L56.575 2.29613C56.575 1.28904 57.7302 0.058793 59.0787 0.058793H59.5679C60.9445 0.058793 62.0528 1.28266 62.0528 2.29613L62.0711 23.7631C62.0711 24.7696 60.9159 26.0001 59.5679 26.0001Z" fill="black"/>
<mask id="mask0_51_35" style="mask-type:alpha" maskUnits="userSpaceOnUse" x="0" y="0" width="63" height="27">
<path fill-rule="evenodd" clip-rule="evenodd" d="M23.4048 19.8897C23.4048 20.573 23.1467 21.2262 22.677 21.7286L22.602 21.6603L22.6833 21.7351C20.2132 24.3452 16.7211 25.8417 13.1018 25.8417C5.87762 25.8417 0 20.0457 0 12.9212C0 5.79637 5.87762 0 13.1018 0C16.5476 0 19.8017 1.30862 22.2648 3.68478C22.6995 4.11103 23.207 4.89896 23.207 5.71934C23.207 7.21014 21.977 8.42288 20.4645 8.42288C19.8258 8.42288 19.21 8.20157 18.7195 7.8024L18.7179 7.80364C18.7138 7.79941 18.7104 7.79601 18.7062 7.7922C18.6942 7.78263 18.6824 7.77356 18.6702 7.76419L18.6732 7.75997C17.2293 6.32365 15.1079 5.43263 13.1195 5.43263C8.94294 5.43263 5.54398 8.78363 5.54398 12.9037C5.54398 17.0232 8.94294 20.3748 13.1195 20.3748C15.5017 20.3748 17.7761 18.9459 19.0008 17.7218L19.0505 17.7712L19.0037 17.7182C19.4616 17.328 19.924 17.1765 20.6532 17.1765C22.1709 17.1765 23.4048 18.3934 23.4048 19.8897ZM26.4387 12.9668C26.4387 20.0944 32.3174 25.893 39.5448 25.893C46.7711 25.893 52.6514 20.0944 52.6514 12.9668C52.6514 5.83989 46.7711 0.0413544 39.5448 0.0413544C32.3174 0.0413544 26.4387 5.83989 26.4387 12.9668ZM31.911 12.9482C31.911 8.8074 35.3266 5.4392 39.5248 5.4392C43.7239 5.4392 47.1396 8.8074 47.1396 12.9482C47.1396 17.0887 43.7239 20.4572 39.5248 20.4572C35.3266 20.4572 31.911 17.0887 31.911 12.9482ZM59.5679 26.0001H59.0787C57.7016 26.0001 56.5924 24.7762 56.5924 23.7631L56.575 2.29613C56.575 1.28904 57.7302 0.058793 59.0787 0.058793H59.5679C60.9445 0.058793 62.0528 1.28266 62.0528 2.29613L62.0711 23.7631C62.0711 24.7696 60.9159 26.0001 59.5679 26.0001Z" fill="white"/>
</mask>
<g mask="url(#mask0_51_35)">
<rect x="-7.48126" y="69.2102" width="179.206" height="62.7635" transform="rotate(-54.8305 -7.48126 69.2102)" fill="black"/>
</g>
</svg>
